<svg xmlns="http://www.w3.org/2000/svg" viewBox="0 0 200 220" fill="none">
  <defs>
    <radialGradient id="hG" cx="40%" cy="30%" r="65%">
      <stop offset="0%" stop-color="#FBBF7A"/>
      <stop offset="45%" stop-color="#E08A3C"/>
      <stop offset="100%" stop-color="#B86820"/>
    </radialGradient>
    <radialGradient id="bG" cx="45%" cy="22%" r="65%">
      <stop offset="0%" stop-color="#F5B060"/>
      <stop offset="45%" stop-color="#E08A3C"/>
      <stop offset="100%" stop-color="#B86820"/>
    </radialGradient>
    <radialGradient id="pG" cx="40%" cy="30%" r="65%">
      <stop offset="0%" stop-color="#F5B060"/>
      <stop offset="100%" stop-color="#C07828"/>
    </radialGradient>
  </defs>

  <!-- Celebration confetti -->
  <circle cx="20" cy="44" r="5.5" fill="#B8ACE5"/>
  <rect x="30" y="22" width="9" height="9" rx="2.5" fill="#E08A3C" opacity="0.8" transform="rotate(30 34 26)"/>
  <circle cx="178" cy="34" r="4.5" fill="#5BAD7F" opacity="0.8"/>
  <rect x="158" y="48" width="8" height="8" rx="2" fill="#B8ACE5" opacity="0.9" transform="rotate(-25 162 52)"/>
  <path d="M163 20L165 14L167 20L173 22L167 24L165 30L163 24L157 22Z" fill="#E08A3C" opacity="0.9"/>
  <path d="M20 62L22 56L24 62L30 64L24 66L22 72L20 66L14 64Z" fill="#B8ACE5" opacity="0.75"/>
  <circle cx="34" cy="84" r="3.5" fill="#E8A020" opacity="0.7"/>
  <circle cx="170" cy="80" r="3" fill="#E08A3C" opacity="0.6"/>
  <circle cx="186" cy="58" r="4.5" fill="#DDD8F5"/>
  <rect x="11" y="76" width="7" height="7" rx="1.5" fill="#B8ACE5" opacity="0.65" transform="rotate(45 14 79)"/>
  <circle cx="188" cy="88" r="2.5" fill="#5BAD7F" opacity="0.65"/>
  <path d="M178 20L179.5 15L181 20L186 21.5L181 23L179.5 28L178 23L173 21.5Z" fill="#B8ACE5" opacity="0.65"/>

  <!-- Ground shadow -->
  <ellipse cx="100" cy="215" rx="50" ry="6" fill="black" opacity="0.07"/>

  <!-- Tail — raised excitedly -->
  <path d="M138 186 Q146 158 164 148 Q178 138 172 124" stroke="#D0802C" stroke-width="14" stroke-linecap="round" fill="none"/>

  <!-- Both arms raised — before body -->
  <path d="M60 144 Q40 120 42 100" stroke="#D0802C" stroke-width="13" stroke-linecap="round" fill="none"/>
  <path d="M140 144 Q160 120 158 100" stroke="#D0802C" stroke-width="13" stroke-linecap="round" fill="none"/>

  <!-- Body (slightly raised — jumping feel) -->
  <ellipse cx="100" cy="160" rx="48" ry="50" fill="url(#bG)"/>
  <path d="M63 148 Q72 142 80 148" stroke="#B86820" stroke-width="2.5" stroke-linecap="round" fill="none" opacity="0.5"/>
  <path d="M120 148 Q129 142 138 148" stroke="#B86820" stroke-width="2.5" stroke-linecap="round" fill="none" opacity="0.5"/>
  <ellipse cx="100" cy="164" rx="22" ry="26" fill="#F5C890" opacity="0.55"/>

  <!-- Left paw -->
  <ellipse cx="42" cy="96" rx="11" ry="10" fill="url(#pG)"/>
  <ellipse cx="35" cy="89" rx="7" ry="6.5" fill="url(#pG)"/>
  <ellipse cx="42" cy="85" rx="7" ry="6.5" fill="url(#pG)"/>
  <ellipse cx="49" cy="89" rx="7" ry="6.5" fill="url(#pG)"/>

  <!-- Right paw -->
  <ellipse cx="158" cy="96" rx="11" ry="10" fill="url(#pG)"/>
  <ellipse cx="151" cy="89" rx="7" ry="6.5" fill="url(#pG)"/>
  <ellipse cx="158" cy="85" rx="7" ry="6.5" fill="url(#pG)"/>
  <ellipse cx="165" cy="89" rx="7" ry="6.5" fill="url(#pG)"/>

  <!-- Ears (before head) -->
  <path d="M72 56 L62 22 L92 50Z" fill="#C07828"/>
  <path d="M128 56 L138 22 L108 50Z" fill="#C07828"/>

  <!-- Head (slightly raised) -->
  <circle cx="100" cy="86" r="48" fill="url(#hG)"/>

  <!-- Ear inners -->
  <path d="M75 53 L67 28 L89 49Z" fill="#F0A068"/>
  <path d="M125 53 L133 28 L111 49Z" fill="#F0A068"/>

  <!-- 3D highlight -->
  <ellipse cx="86" cy="66" rx="16" ry="10" fill="white" opacity="0.13" transform="rotate(-20 86 66)"/>

  <!-- Forehead stripes -->
  <path d="M88 50 Q100 46 112 50" stroke="#B86820" stroke-width="2.2" stroke-linecap="round" fill="none" opacity="0.6"/>
  <path d="M85 58 Q100 54 115 58" stroke="#B86820" stroke-width="1.8" stroke-linecap="round" fill="none" opacity="0.5"/>

  <!-- Eyes — extra wide + double highlight dots -->
  <circle cx="84" cy="86" r="11.5" fill="#251806"/>
  <circle cx="87" cy="80" r="4.5" fill="white"/>
  <circle cx="83" cy="89" r="2" fill="white" opacity="0.45"/>
  <circle cx="116" cy="86" r="11.5" fill="#251806"/>
  <circle cx="119" cy="80" r="4.5" fill="white"/>
  <circle cx="115" cy="89" r="2" fill="white" opacity="0.45"/>

  <!-- Cheek blush — strongest (maximum happiness) -->
  <ellipse cx="72" cy="99" rx="10" ry="6" fill="#D96058" opacity="0.28"/>
  <ellipse cx="128" cy="99" rx="10" ry="6" fill="#D96058" opacity="0.28"/>

  <!-- Nose -->
  <ellipse cx="100" cy="100" rx="4" ry="3.5" fill="#D96058"/>
  <!-- Big open celebration smile -->
  <path d="M100 103.5 L100 107" stroke="#C05040" stroke-width="1.6" stroke-linecap="round" fill="none"/>
  <path d="M90 108 Q100 119 110 108" stroke="#C05040" stroke-width="2.2" stroke-linecap="round" fill="none"/>

  <!-- Whiskers -->
  <line x1="52" y1="98" x2="88" y2="101" stroke="#E0C090" stroke-width="1.1" opacity="0.65"/>
  <line x1="52" y1="107" x2="88" y2="106" stroke="#E0C090" stroke-width="1.1" opacity="0.65"/>
  <line x1="148" y1="98" x2="112" y2="101" stroke="#E0C090" stroke-width="1.1" opacity="0.65"/>
  <line x1="148" y1="107" x2="112" y2="106" stroke="#E0C090" stroke-width="1.1" opacity="0.65"/>
</svg>
