<svg width="25" height="24" viewBox="0 0 25 24" fill="none" xmlns="http://www.w3.org/2000/svg">
<path opacity="0.4" d="M22.8334 7.81V16.19C22.8334 19 21.5434 20.93 19.2734 21.66C18.6134 21.89 17.8534 22 17.0234 22H8.64337C7.81337 22 7.05337 21.89 6.39337 21.66C4.12337 20.93 2.83337 19 2.83337 16.19V7.81C2.83337 4.17 5.00337 2 8.64337 2H17.0234C20.6634 2 22.8334 4.17 22.8334 7.81Z" fill="#3B8DC4"/>
<path d="M19.2734 21.6597C18.6134 21.8897 17.8534 21.9998 17.0234 21.9998H8.64337C7.81337 21.9998 7.05337 21.8897 6.39337 21.6597C6.74337 19.0197 9.50337 16.9697 12.8334 16.9697C16.1634 16.9697 18.9234 19.0197 19.2734 21.6597Z" fill="#3B8DC4"/>
<path d="M16.4134 11.58C16.4134 13.56 14.8134 15.17 12.8334 15.17C10.8534 15.17 9.25336 13.56 9.25336 11.58C9.25336 9.60002 10.8534 8 12.8334 8C14.8134 8 16.4134 9.60002 16.4134 11.58Z" fill="#3B8DC4"/>
</svg>
