<svg width="20" height="20" viewBox="0 0 20 20" fill="none" xmlns="http://www.w3.org/2000/svg">
<path opacity="0.4" d="M10 18.3333C14.6024 18.3333 18.3334 14.6023 18.3334 9.99996C18.3334 5.39759 14.6024 1.66663 10 1.66663C5.39765 1.66663 1.66669 5.39759 1.66669 9.99996C1.66669 14.6023 5.39765 18.3333 10 18.3333Z" fill="#B3BBC7"/>
<path d="M10.8833 10L12.8 8.08338C13.0417 7.84172 13.0417 7.44172 12.8 7.20005C12.5583 6.95838 12.1583 6.95838 11.9167 7.20005L9.99999 9.11671L8.08332 7.20005C7.84165 6.95838 7.44165 6.95838 7.19999 7.20005C6.95832 7.44172 6.95832 7.84172 7.19999 8.08338L9.11665 10L7.19999 11.9167C6.95832 12.1584 6.95832 12.5584 7.19999 12.8C7.32499 12.925 7.48332 12.9834 7.64165 12.9834C7.79999 12.9834 7.95832 12.925 8.08332 12.8L9.99999 10.8834L11.9167 12.8C12.0417 12.925 12.2 12.9834 12.3583 12.9834C12.5167 12.9834 12.675 12.925 12.8 12.8C13.0417 12.5584 13.0417 12.1584 12.8 11.9167L10.8833 10Z" fill="#B3BBC7"/>
</svg>
