<svg width="25" height="24" viewBox="0 0 25 24" fill="none" xmlns="http://www.w3.org/2000/svg">
<path opacity="0.4" d="M21.5367 11.39V17.38C21.5367 20.14 19.2967 22.38 16.5367 22.38H7.79669C5.03669 22.38 2.79669 20.14 2.79669 17.38V11.46C3.55669 12.28 4.63669 12.75 5.80669 12.75C7.06669 12.75 8.27669 12.12 9.03669 11.11C9.71669 12.12 10.8767 12.75 12.1667 12.75C13.4467 12.75 14.5867 12.15 15.2767 11.15C16.0467 12.14 17.2367 12.75 18.4767 12.75C19.6867 12.75 20.7867 12.26 21.5367 11.39Z" fill="#3B8DC4"/>
<path d="M15.1567 1.25H9.15666L8.41666 8.61C8.35666 9.29 8.45666 9.93 8.70666 10.51C9.28666 11.87 10.6467 12.75 12.1667 12.75C13.7067 12.75 15.0367 11.89 15.6367 10.52C15.8167 10.09 15.9267 9.59 15.9367 9.08V8.89L15.1567 1.25Z" fill="#3B8DC4"/>
<path opacity="0.6" d="M22.5267 8.27L22.2367 5.5C21.8167 2.48 20.4467 1.25 17.5167 1.25H13.6767L14.4167 8.75C14.4267 8.85 14.4367 8.96 14.4367 9.15C14.4967 9.67 14.6567 10.15 14.8967 10.58C15.6167 11.9 17.0167 12.75 18.4767 12.75C19.8067 12.75 21.0067 12.16 21.7567 11.12C22.3567 10.32 22.6267 9.31 22.5267 8.27Z" fill="#3B8DC4"/>
<path opacity="0.6" d="M6.7567 1.25C3.8167 1.25 2.4567 2.48 2.0267 5.53L1.7567 8.28C1.6567 9.35 1.9467 10.39 2.5767 11.2C3.3367 12.19 4.5067 12.75 5.8067 12.75C7.2667 12.75 8.6667 11.9 9.3767 10.6C9.6367 10.15 9.8067 9.63 9.8567 9.09L10.6367 1.26H6.7567V1.25Z" fill="#3B8DC4"/>
<path d="M11.5167 16.66C10.2467 16.79 9.28668 17.87 9.28668 19.15V22.38H15.0367V19.5C15.0467 17.41 13.8167 16.42 11.5167 16.66Z" fill="#3B8DC4"/>
</svg>
