<svg width="25" height="24" viewBox="0 0 25 24" fill="none" xmlns="http://www.w3.org/2000/svg">
<path opacity="0.4" d="M21.5367 11.3899V17.3799C21.5367 20.1399 19.2967 22.3799 16.5367 22.3799H7.79669C5.03669 22.3799 2.79669 20.1399 2.79669 17.3799V11.4599C3.55669 12.2799 4.63669 12.7499 5.80669 12.7499C7.06669 12.7499 8.27669 12.1199 9.03669 11.1099C9.71669 12.1199 10.8767 12.7499 12.1667 12.7499C13.4467 12.7499 14.5867 12.1499 15.2767 11.1499C16.0467 12.1399 17.2367 12.7499 18.4767 12.7499C19.6867 12.7499 20.7867 12.2599 21.5367 11.3899Z" fill="#B3BBC7"/>
<path d="M15.1567 1.25H9.15666L8.41666 8.61C8.35666 9.29 8.45666 9.93 8.70666 10.51C9.28666 11.87 10.6467 12.75 12.1667 12.75C13.7067 12.75 15.0367 11.89 15.6367 10.52C15.8167 10.09 15.9267 9.59 15.9367 9.08V8.89L15.1567 1.25Z" fill="#B3BBC7"/>
<path opacity="0.6" d="M22.5267 8.27L22.2367 5.5C21.8167 2.48 20.4467 1.25 17.5167 1.25H13.6767L14.4167 8.75C14.4267 8.85 14.4367 8.96 14.4367 9.15C14.4967 9.67 14.6567 10.15 14.8967 10.58C15.6167 11.9 17.0167 12.75 18.4767 12.75C19.8067 12.75 21.0067 12.16 21.7567 11.12C22.3567 10.32 22.6267 9.31 22.5267 8.27Z" fill="#B3BBC7"/>
<path opacity="0.6" d="M6.7567 1.25C3.8167 1.25 2.4567 2.48 2.0267 5.53L1.7567 8.28C1.6567 9.35 1.9467 10.39 2.5767 11.2C3.3367 12.19 4.5067 12.75 5.8067 12.75C7.2667 12.75 8.6667 11.9 9.3767 10.6C9.6367 10.15 9.8067 9.63 9.8567 9.09L10.6367 1.26H6.7567V1.25Z" fill="#B3BBC7"/>
<path d="M11.5167 16.6602C10.2467 16.7902 9.28668 17.8702 9.28668 19.1502V22.3802H15.0367V19.5002C15.0467 17.4102 13.8167 16.4202 11.5167 16.6602Z" fill="#B3BBC7"/>
</svg>
