<svg width="20" height="20" viewBox="0 0 20 20" fill="none" xmlns="http://www.w3.org/2000/svg">
<path d="M7.42498 17.2248C7.26665 17.2248 7.10831 17.1664 6.98331 17.0414C6.74165 16.7998 6.74165 16.3998 6.98331 16.1581L12.4166 10.7248C12.8166 10.3248 12.8166 9.67477 12.4166 9.27477L6.98331 3.84144C6.74165 3.59977 6.74165 3.19977 6.98331 2.95811C7.22498 2.71644 7.62498 2.71644 7.86665 2.95811L13.3 8.39144C13.725 8.81644 13.9666 9.39144 13.9666 9.99977C13.9666 10.6081 13.7333 11.1831 13.3 11.6081L7.86665 17.0414C7.74165 17.1581 7.58331 17.2248 7.42498 17.2248Z" fill="#3B8DC4"/>
</svg>
