<svg width="16" height="16" viewBox="0 0 16 16" fill="none" xmlns="http://www.w3.org/2000/svg">
<path opacity="0.4" d="M14.1533 5.07999H10.46C10.2067 5.07999 10 4.87332 10 4.61332C10 4.35999 10.2067 4.15332 10.46 4.15332H14.1533C14.4067 4.15332 14.6133 4.35999 14.6133 4.61332C14.6133 4.87332 14.4067 5.07999 14.1533 5.07999Z" fill="#3B8DC4"/>
<path opacity="0.4" d="M4.30672 5.08003H1.84672C1.59339 5.08003 1.38672 4.87337 1.38672 4.62003C1.38672 4.3667 1.59339 4.16003 1.84672 4.16003H4.30672C4.56005 4.16003 4.76672 4.3667 4.76672 4.62003C4.76672 4.87337 4.56005 5.08003 4.30672 5.08003Z" fill="#3B8DC4"/>
<path d="M6.76665 7.22667C8.20996 7.22667 9.37999 6.05664 9.37999 4.61333C9.37999 3.17003 8.20996 2 6.76665 2C5.32335 2 4.15332 3.17003 4.15332 4.61333C4.15332 6.05664 5.32335 7.22667 6.76665 7.22667Z" fill="#3B8DC4"/>
<path opacity="0.4" d="M14.1533 11.8466H11.6933C11.4399 11.8466 11.2333 11.64 11.2333 11.3866C11.2333 11.1333 11.4399 10.9266 11.6933 10.9266H14.1533C14.4066 10.9266 14.6133 11.1333 14.6133 11.3866C14.6133 11.64 14.4066 11.8466 14.1533 11.8466Z" fill="#3B8DC4"/>
<path opacity="0.4" d="M5.54005 11.8466H1.84672C1.59339 11.8466 1.38672 11.64 1.38672 11.3866C1.38672 11.1333 1.59339 10.9266 1.84672 10.9266H5.54005C5.79339 10.9266 6.00005 11.1333 6.00005 11.3866C6.00005 11.64 5.79339 11.8466 5.54005 11.8466Z" fill="#3B8DC4"/>
<path d="M9.23333 14C10.6766 14 11.8467 12.83 11.8467 11.3866C11.8467 9.94334 10.6766 8.77332 9.23333 8.77332C7.79002 8.77332 6.62 9.94334 6.62 11.3866C6.62 12.83 7.79002 14 9.23333 14Z" fill="#B1D1E7"/>
</svg>
